M48
;GenerationSoftware,Autodesk,EAGLE,9.3.0*%
;CreationDate,2019-02-05T22:28:01Z*%
FMAT,2
ICI,OFF
METRIC,TZ,000.000
T3C0.350
T2C1.016
T1C2.300
%
G90
M71
T1
X8570Y21070
X18530Y21070
X28490Y21070
X38560Y21120
X48550Y21070
X58560Y21180
T2
X3260Y3850
X15820Y3760
X12670Y3780
X9570Y3750
X6490Y3870
X28690Y3510
X18940Y3590
X22170Y3530
X25510Y3590
T3
X15360Y13810
X-180Y20320
X1100Y27730
X6780Y27740
X18490Y25410
X28880Y25410
X38540Y25320
X44430Y27620
X51600Y27710
X50680Y16290
X27960Y14640
X54910Y5340
M30