G04 EAGLE Gerber RS-274X export*
G75*
%MOMM*%
%FSLAX34Y34*%
%LPD*%
%INBottom Copper*%
%IPPOS*%
%AMOC8*
5,1,8,0,0,1.08239X$1,22.5*%
G01*
%ADD10P,1.649562X8X22.500000*%
%ADD11C,0.756400*%

G36*
X600079Y11242D02*
X600079Y11242D01*
X600098Y11245D01*
X600117Y11243D01*
X600219Y11265D01*
X600322Y11282D01*
X600339Y11291D01*
X600358Y11295D01*
X600447Y11348D01*
X600539Y11397D01*
X600552Y11411D01*
X600569Y11421D01*
X600637Y11500D01*
X600708Y11576D01*
X600716Y11593D01*
X600729Y11608D01*
X600768Y11705D01*
X600811Y11799D01*
X600814Y11818D01*
X600821Y11836D01*
X600839Y12003D01*
X600839Y194569D01*
X600828Y194639D01*
X600826Y194711D01*
X600808Y194760D01*
X600800Y194811D01*
X600766Y194875D01*
X600741Y194942D01*
X600709Y194983D01*
X600684Y195029D01*
X600632Y195078D01*
X600588Y195134D01*
X600544Y195162D01*
X600506Y195198D01*
X600441Y195228D01*
X600381Y195267D01*
X600330Y195280D01*
X600283Y195302D01*
X600212Y195310D01*
X600142Y195327D01*
X600090Y195323D01*
X600039Y195329D01*
X599968Y195314D01*
X599897Y195308D01*
X599849Y195288D01*
X599798Y195277D01*
X599737Y195240D01*
X599671Y195212D01*
X599615Y195167D01*
X599587Y195150D01*
X599572Y195133D01*
X599540Y195107D01*
X597870Y193437D01*
X589909Y190139D01*
X581291Y190139D01*
X573330Y193437D01*
X567237Y199530D01*
X563939Y207491D01*
X563939Y216109D01*
X567237Y224070D01*
X573330Y230163D01*
X581291Y233461D01*
X589909Y233461D01*
X597870Y230163D01*
X599540Y228493D01*
X599598Y228451D01*
X599650Y228402D01*
X599697Y228380D01*
X599739Y228350D01*
X599808Y228329D01*
X599873Y228298D01*
X599925Y228293D01*
X599975Y228277D01*
X600046Y228279D01*
X600117Y228271D01*
X600168Y228282D01*
X600220Y228284D01*
X600288Y228308D01*
X600358Y228323D01*
X600403Y228350D01*
X600451Y228368D01*
X600507Y228413D01*
X600569Y228450D01*
X600603Y228489D01*
X600643Y228522D01*
X600682Y228582D01*
X600729Y228637D01*
X600748Y228685D01*
X600776Y228729D01*
X600794Y228798D01*
X600821Y228865D01*
X600829Y228936D01*
X600837Y228967D01*
X600835Y228991D01*
X600839Y229031D01*
X600839Y290159D01*
X600836Y290179D01*
X600838Y290200D01*
X600816Y290300D01*
X600800Y290402D01*
X600790Y290420D01*
X600785Y290440D01*
X600732Y290529D01*
X600684Y290619D01*
X600670Y290633D01*
X600659Y290651D01*
X600581Y290718D01*
X600506Y290788D01*
X600487Y290797D01*
X600472Y290811D01*
X600376Y290849D01*
X600283Y290892D01*
X600263Y290894D01*
X600243Y290902D01*
X600077Y290920D01*
X-9079Y289858D01*
X-9098Y289855D01*
X-9117Y289857D01*
X-9219Y289835D01*
X-9322Y289818D01*
X-9339Y289809D01*
X-9358Y289805D01*
X-9447Y289752D01*
X-9539Y289703D01*
X-9552Y289689D01*
X-9569Y289679D01*
X-9637Y289600D01*
X-9708Y289524D01*
X-9716Y289507D01*
X-9729Y289492D01*
X-9768Y289395D01*
X-9811Y289301D01*
X-9814Y289282D01*
X-9821Y289264D01*
X-9839Y289097D01*
X-9839Y10941D01*
X-9836Y10921D01*
X-9838Y10900D01*
X-9816Y10800D01*
X-9800Y10698D01*
X-9790Y10680D01*
X-9785Y10660D01*
X-9732Y10571D01*
X-9684Y10481D01*
X-9670Y10467D01*
X-9659Y10449D01*
X-9581Y10382D01*
X-9506Y10312D01*
X-9487Y10303D01*
X-9472Y10289D01*
X-9376Y10251D01*
X-9283Y10208D01*
X-9263Y10206D01*
X-9243Y10198D01*
X-9077Y10180D01*
X600079Y11242D01*
G37*
%LPC*%
G36*
X381291Y189539D02*
X381291Y189539D01*
X373330Y192837D01*
X367237Y198930D01*
X363939Y206891D01*
X363939Y215509D01*
X367237Y223470D01*
X373330Y229563D01*
X381291Y232861D01*
X389909Y232861D01*
X397870Y229563D01*
X403963Y223470D01*
X407261Y215509D01*
X407261Y206891D01*
X403963Y198930D01*
X397870Y192837D01*
X389909Y189539D01*
X381291Y189539D01*
G37*
%LPD*%
%LPC*%
G36*
X481191Y189039D02*
X481191Y189039D01*
X473230Y192337D01*
X467137Y198430D01*
X463839Y206391D01*
X463839Y215009D01*
X467137Y222970D01*
X473230Y229063D01*
X481191Y232361D01*
X489809Y232361D01*
X497770Y229063D01*
X503863Y222970D01*
X507161Y215009D01*
X507161Y206391D01*
X503863Y198430D01*
X497770Y192337D01*
X489809Y189039D01*
X481191Y189039D01*
G37*
%LPD*%
%LPC*%
G36*
X280591Y189039D02*
X280591Y189039D01*
X272630Y192337D01*
X266537Y198430D01*
X263239Y206391D01*
X263239Y215009D01*
X266537Y222970D01*
X272630Y229063D01*
X280591Y232361D01*
X289209Y232361D01*
X297170Y229063D01*
X303263Y222970D01*
X306561Y215009D01*
X306561Y206391D01*
X303263Y198430D01*
X297170Y192337D01*
X289209Y189039D01*
X280591Y189039D01*
G37*
%LPD*%
%LPC*%
G36*
X180991Y189039D02*
X180991Y189039D01*
X173030Y192337D01*
X166937Y198430D01*
X163639Y206391D01*
X163639Y215009D01*
X166937Y222970D01*
X173030Y229063D01*
X180991Y232361D01*
X189609Y232361D01*
X197570Y229063D01*
X203663Y222970D01*
X206961Y215009D01*
X206961Y206391D01*
X203663Y198430D01*
X197570Y192337D01*
X189609Y189039D01*
X180991Y189039D01*
G37*
%LPD*%
%LPC*%
G36*
X81391Y189039D02*
X81391Y189039D01*
X73430Y192337D01*
X67337Y198430D01*
X64039Y206391D01*
X64039Y215009D01*
X67337Y222970D01*
X73430Y229063D01*
X81391Y232361D01*
X90009Y232361D01*
X97970Y229063D01*
X104063Y222970D01*
X107361Y215009D01*
X107361Y206391D01*
X104063Y198430D01*
X97970Y192337D01*
X90009Y189039D01*
X81391Y189039D01*
G37*
%LPD*%
%LPC*%
G36*
X61112Y29555D02*
X61112Y29555D01*
X55755Y34912D01*
X55755Y42488D01*
X61112Y47845D01*
X68688Y47845D01*
X74045Y42488D01*
X74045Y34912D01*
X68688Y29555D01*
X61112Y29555D01*
G37*
%LPD*%
%LPC*%
G36*
X28812Y29355D02*
X28812Y29355D01*
X23455Y34712D01*
X23455Y42288D01*
X28812Y47645D01*
X36388Y47645D01*
X41745Y42288D01*
X41745Y34712D01*
X36388Y29355D01*
X28812Y29355D01*
G37*
%LPD*%
%LPC*%
G36*
X122912Y28655D02*
X122912Y28655D01*
X117555Y34012D01*
X117555Y41588D01*
X122912Y46945D01*
X130488Y46945D01*
X135845Y41588D01*
X135845Y34012D01*
X130488Y28655D01*
X122912Y28655D01*
G37*
%LPD*%
%LPC*%
G36*
X154412Y28455D02*
X154412Y28455D01*
X149055Y33812D01*
X149055Y41388D01*
X154412Y46745D01*
X161988Y46745D01*
X167345Y41388D01*
X167345Y33812D01*
X161988Y28455D01*
X154412Y28455D01*
G37*
%LPD*%
%LPC*%
G36*
X91912Y28355D02*
X91912Y28355D01*
X86555Y33712D01*
X86555Y41288D01*
X91912Y46645D01*
X99488Y46645D01*
X104845Y41288D01*
X104845Y33712D01*
X99488Y28355D01*
X91912Y28355D01*
G37*
%LPD*%
%LPC*%
G36*
X251312Y26755D02*
X251312Y26755D01*
X245955Y32112D01*
X245955Y39688D01*
X251312Y45045D01*
X258888Y45045D01*
X264245Y39688D01*
X264245Y32112D01*
X258888Y26755D01*
X251312Y26755D01*
G37*
%LPD*%
%LPC*%
G36*
X185612Y26755D02*
X185612Y26755D01*
X180255Y32112D01*
X180255Y39688D01*
X185612Y45045D01*
X193188Y45045D01*
X198545Y39688D01*
X198545Y32112D01*
X193188Y26755D01*
X185612Y26755D01*
G37*
%LPD*%
%LPC*%
G36*
X217912Y26155D02*
X217912Y26155D01*
X212555Y31512D01*
X212555Y39088D01*
X217912Y44445D01*
X225488Y44445D01*
X230845Y39088D01*
X230845Y31512D01*
X225488Y26155D01*
X217912Y26155D01*
G37*
%LPD*%
%LPC*%
G36*
X283112Y25955D02*
X283112Y25955D01*
X277755Y31312D01*
X277755Y38888D01*
X283112Y44245D01*
X290688Y44245D01*
X296045Y38888D01*
X296045Y31312D01*
X290688Y25955D01*
X283112Y25955D01*
G37*
%LPD*%
D10*
X32600Y38500D03*
X158200Y37600D03*
X126700Y37800D03*
X95700Y37500D03*
X64900Y38700D03*
X286900Y35100D03*
X189400Y35900D03*
X221700Y35300D03*
X255100Y35900D03*
D11*
X153600Y138100D03*
X-1800Y203200D03*
X11000Y277300D03*
X67800Y277400D03*
X184900Y254100D03*
X288800Y254100D03*
X385400Y253200D03*
X444300Y276200D03*
X516000Y277100D03*
X506800Y162900D03*
X279600Y146400D03*
X549100Y53400D03*
M02*
