G04 EAGLE Gerber RS-274X export*
G75*
%MOMM*%
%FSLAX34Y34*%
%LPD*%
%INSoldermask Top*%
%IPPOS*%
%AMOC8*
5,1,8,0,0,1.08239X$1,22.5*%
G01*
%ADD10C,2.503200*%
%ADD11P,1.869504X8X22.500000*%
%ADD12R,2.603200X1.453200*%
%ADD13R,1.903200X1.703200*%
%ADD14R,1.903200X1.203200*%
%ADD15R,1.703200X1.703200*%
%ADD16R,0.703200X1.803200*%
%ADD17R,0.903200X2.703200*%
%ADD18C,0.959600*%


D10*
X85700Y210700D03*
X185300Y210700D03*
X284900Y210700D03*
X385600Y211200D03*
X485500Y210700D03*
X585600Y211800D03*
D11*
X32600Y38500D03*
X158200Y37600D03*
X126700Y37800D03*
X95700Y37500D03*
X64900Y38700D03*
X286900Y35100D03*
X189400Y35900D03*
X221700Y35300D03*
X255100Y35900D03*
D12*
X40600Y244550D03*
X40600Y216050D03*
D13*
X38400Y91100D03*
X38300Y124200D03*
D14*
X526500Y88500D03*
X526500Y118500D03*
X396800Y116200D03*
X396800Y146200D03*
X426900Y109900D03*
X426900Y139900D03*
X475200Y95400D03*
X475200Y125400D03*
D15*
X542100Y249200D03*
X542100Y214200D03*
D16*
X430900Y216050D03*
X448900Y216050D03*
X439900Y216050D03*
X430900Y245550D03*
X439900Y245550D03*
X448900Y245550D03*
D17*
X146200Y207300D03*
X131200Y207300D03*
X131200Y251300D03*
X146200Y251300D03*
X247500Y207800D03*
X232500Y207800D03*
X232500Y251800D03*
X247500Y251800D03*
X346100Y207600D03*
X331100Y207600D03*
X331100Y251600D03*
X346100Y251600D03*
D14*
X333600Y119600D03*
X333600Y149600D03*
X222700Y136300D03*
X222700Y166300D03*
X102400Y97100D03*
X102400Y127100D03*
D18*
X153600Y138100D03*
X-1800Y203200D03*
X11000Y277300D03*
X67800Y277400D03*
X184900Y254100D03*
X288800Y254100D03*
X385400Y253200D03*
X444300Y276200D03*
X516000Y277100D03*
X506800Y162900D03*
X279600Y146400D03*
X549100Y53400D03*
M02*
